<svg width="134" height="77" viewBox="0 0 134 77" fill="none" xmlns="http://www.w3.org/2000/svg">
<path d="M38.9497 38.5715L43.1345 36.0574L45.3811 31.7545L48.5067 29.4355L50.9082 24.8359L53.8065 22.5856L59.1215 14.6063L60.5123 17.8102L64.1766 20.3273M64.1766 20.3273L69.6242 24.9299M64.1766 20.3273L67.9893 17.4258L72.8865 12.447L77.1974 17.3931L79.8126 19.3523L84.0561 23.6938L86.9189 24.0786L88.852 26.2439L94.8267 30.9372" stroke="white" stroke-linecap="square" stroke-linejoin="round"/>
<path d="M61.7872 30.4599L65.2088 28.6443L66.1469 26.8474L71.0875 24.3091L73.2766 20.1164M73.2766 20.1164L75.8568 22.8275L76.7504 23.3027L79.0813 27.2203M73.2766 20.1164L73.1612 22.1595L74.4496 25.5228L73.5896 27.1699L70.559 28.2368L69.7772 29.7342M79.0813 27.2203L81.103 27.7214L84.7891 31.5944L85.653 33.5842L92.3549 37.1476L93.5948 39.146M79.0813 27.2203L79.1298 28.5852L77.9571 30.8313L79.1598 34.723L81.189 34.8454L83.7767 37.1779M70.8378 17.8632L72.6359 14.4192L72.8294 12.2264M52.6207 29.7947L56.6118 25.795L59.1918 20.8536L57.8029 18.776L58.9756 16.5299L59.0128 14.6366" stroke="white"/>
<circle cx="64.5" cy="8.5" r="2" stroke="white"/>
<path d="M16.84 60V59.559L18.772 59.244V43.956L16.84 43.662V43.2H23.014V43.662L21.082 43.956V59.496H27.361L29.083 54.876H29.65V60H16.84ZM32.0609 60V59.559L33.9929 59.244V43.956L32.0609 43.662V43.2H38.2349V43.662L36.3029 43.956V59.244L38.2349 59.559V60H32.0609ZM40.9654 59.559L42.8974 59.244V43.956L40.9654 43.662V43.2H47.3704C48.8824 43.2 50.0864 43.34 50.9824 43.62C51.8784 43.9 52.5294 44.327 52.9354 44.901C53.3414 45.461 53.5444 46.203 53.5444 47.127C53.5444 49.143 52.2704 50.431 49.7224 50.991V51.096C51.2764 51.306 52.4804 51.768 53.3344 52.482C54.2024 53.196 54.6364 54.19 54.6364 55.464C54.6364 57.004 54.0694 58.145 52.9354 58.887C51.8154 59.629 50.2964 60 48.3784 60H40.9654V59.559ZM47.5384 50.928C48.6584 50.928 49.5194 50.613 50.1214 49.983C50.7234 49.353 51.0244 48.457 51.0244 47.295V47.169C51.0244 44.873 49.8064 43.725 47.3704 43.725H45.2074V50.928H47.5384ZM48.3784 59.496C49.5684 59.496 50.4924 59.153 51.1504 58.467C51.8084 57.767 52.1374 56.773 52.1374 55.485V55.254C52.1374 53.98 51.8084 53.028 51.1504 52.398C50.5064 51.768 49.5824 51.453 48.3784 51.453H45.2074V59.496H48.3784ZM57.6629 60V59.559L59.5949 59.244V43.956L57.6629 43.662V43.2H70.3049V48.009H69.7379L68.1209 43.725H61.9049V51.285H64.6349L65.8739 48.24H66.4199V54.876H65.8739L64.6139 51.789H61.9049V59.496H68.4989L70.2209 54.876H70.7669V60H57.6629ZM86.0486 60.21C85.2646 60.21 84.6766 60.021 84.2846 59.643C83.8926 59.265 83.6266 58.621 83.4866 57.711L83.0876 54.897C82.9476 53.945 82.6186 53.203 82.1006 52.671C81.5966 52.125 80.8056 51.852 79.7276 51.852H78.0896V59.244L80.0216 59.559V60H73.8476V59.559L75.7796 59.244V43.956L73.8476 43.662V43.2H79.7276C82.0096 43.2 83.6616 43.557 84.6836 44.271C85.7056 44.985 86.2166 46.07 86.2166 47.526C86.2166 49.934 84.7606 51.327 81.8486 51.705V51.831C82.9266 51.985 83.7876 52.37 84.4316 52.986C85.0896 53.602 85.5026 54.421 85.6706 55.443L85.9436 57.249C86.0556 58.033 86.1816 58.565 86.3216 58.845C86.4756 59.125 86.7066 59.265 87.0146 59.265C87.2246 59.265 87.4486 59.202 87.6866 59.076C87.9246 58.936 88.1486 58.761 88.3586 58.551L88.7156 58.929C88.3096 59.391 87.8896 59.72 87.4556 59.916C87.0216 60.112 86.5526 60.21 86.0486 60.21ZM80.4416 51.348C81.4636 51.348 82.2546 51.04 82.8146 50.424C83.3886 49.794 83.6756 48.87 83.6756 47.652V47.211C83.6756 44.887 82.3596 43.725 79.7276 43.725H78.0896V51.348H80.4416ZM93.5784 60V59.559L95.5104 59.244V43.725H92.0454L90.4494 47.883H89.8404V43.2H103.511V47.883H102.881L101.306 43.725H97.8204V59.244L99.7524 59.559V60H93.5784ZM109.186 60V59.559L111.139 59.244V52.86L106.036 43.956L104.377 43.662V43.2H110.698V43.662L108.745 43.956L113.155 51.579L117.208 44.67L114.688 43.662V43.2H119.392V43.662L117.775 44.691L113.407 52.167V59.244L115.36 59.559V60H109.186Z" fill="white"/>
<path d="M34.678 70.036C34.554 70.036 34.492 69.972 34.492 69.844V66.1H32.494V67.126C32.494 67.694 32.452 68.166 32.368 68.542C32.288 68.918 32.168 69.222 32.008 69.454C31.848 69.686 31.65 69.872 31.414 70.012C31.302 70.08 31.216 70.062 31.156 69.958C31.1 69.858 31.128 69.774 31.24 69.706C31.38 69.622 31.504 69.518 31.612 69.394C31.724 69.266 31.82 69.102 31.9 68.902C31.98 68.702 32.04 68.452 32.08 68.152C32.124 67.848 32.146 67.476 32.146 67.036V65.98C32.146 65.84 32.216 65.77 32.356 65.77H34.654C34.794 65.77 34.864 65.84 34.864 65.98V69.844C34.864 69.972 34.802 70.036 34.678 70.036ZM36.12 70.036C36.04 70.036 35.988 70.012 35.964 69.964C35.94 69.912 35.944 69.85 35.976 69.778L37.662 65.902C37.71 65.79 37.784 65.734 37.884 65.734C37.984 65.734 38.058 65.79 38.106 65.902L39.792 69.778C39.828 69.85 39.834 69.912 39.81 69.964C39.79 70.012 39.742 70.036 39.666 70.036C39.61 70.036 39.564 70.022 39.528 69.994C39.496 69.962 39.468 69.92 39.444 69.868L39.018 68.872H36.75L36.324 69.868C36.276 69.98 36.208 70.036 36.12 70.036ZM37.878 66.226L36.888 68.554H38.88L37.89 66.226H37.878ZM41.08 70.036C40.96 70.036 40.9 69.972 40.9 69.844V65.962C40.9 65.834 40.964 65.77 41.092 65.77H43.336C43.452 65.77 43.51 65.826 43.51 65.938C43.51 66.046 43.452 66.1 43.336 66.1H41.266V69.844C41.266 69.972 41.204 70.036 41.08 70.036ZM44.6091 70C44.4731 70 44.4051 69.93 44.4051 69.79V65.98C44.4051 65.84 44.4731 65.77 44.6091 65.77H46.8771C46.9891 65.77 47.0451 65.822 47.0451 65.926C47.0451 66.034 46.9891 66.088 46.8771 66.088H44.7651V67.696H46.7571C46.8691 67.696 46.9251 67.748 46.9251 67.852C46.9251 67.96 46.8691 68.014 46.7571 68.014H44.7651V69.682H46.8771C46.9891 69.682 47.0451 69.734 47.0451 69.838C47.0451 69.946 46.9891 70 46.8771 70H44.6091ZM48.3422 70.036C48.2222 70.036 48.1622 69.972 48.1622 69.844V65.962C48.1622 65.834 48.2242 65.77 48.3482 65.77H49.7582C50.2102 65.77 50.5542 65.878 50.7902 66.094C51.0302 66.31 51.1502 66.618 51.1502 67.018C51.1502 67.414 51.0302 67.722 50.7902 67.942C50.5542 68.158 50.2102 68.266 49.7582 68.266H48.5282V69.844C48.5282 69.972 48.4662 70.036 48.3422 70.036ZM48.5282 67.942H49.7282C50.4282 67.942 50.7782 67.634 50.7782 67.018C50.7782 66.398 50.4282 66.088 49.7282 66.088H48.5282V67.942ZM52.4103 70C52.2743 70 52.2063 69.93 52.2063 69.79V65.926C52.2063 65.798 52.2663 65.734 52.3863 65.734C52.5103 65.734 52.5723 65.798 52.5723 65.926V67.684H53.8983C54.3383 67.684 54.6783 67.78 54.9183 67.972C55.1583 68.16 55.2783 68.448 55.2783 68.836C55.2783 69.22 55.1583 69.51 54.9183 69.706C54.6783 69.902 54.3383 70 53.8983 70H52.4103ZM52.5723 69.682H53.8683C54.5603 69.682 54.9063 69.4 54.9063 68.836C54.9063 68.28 54.5603 68.002 53.8683 68.002H52.5723V69.682ZM57.9678 70.96C57.8558 70.96 57.7998 70.9 57.7998 70.78V69.874C57.7998 69.746 57.8658 69.682 57.9978 69.682H58.2078C58.4238 69.41 58.5838 69.044 58.6878 68.584C58.7958 68.12 58.8498 67.544 58.8498 66.856V65.98C58.8498 65.84 58.9178 65.77 59.0538 65.77H61.3578C61.4978 65.77 61.5678 65.84 61.5678 65.98V69.682H61.9698C62.1018 69.682 62.1678 69.746 62.1678 69.874V70.78C62.1678 70.9 62.1118 70.96 61.9998 70.96C61.8838 70.96 61.8258 70.9 61.8258 70.78V70H58.1418V70.78C58.1418 70.9 58.0838 70.96 57.9678 70.96ZM58.6038 69.682H61.1958V66.088H59.1978V66.874C59.1978 67.55 59.1498 68.112 59.0538 68.56C58.9618 69.008 58.8118 69.382 58.6038 69.682ZM66.2811 70.036C66.1571 70.036 66.0951 69.972 66.0951 69.844V66.1H64.0971V67.126C64.0971 67.694 64.0551 68.166 63.9711 68.542C63.8911 68.918 63.7711 69.222 63.6111 69.454C63.4511 69.686 63.2531 69.872 63.0171 70.012C62.9051 70.08 62.8191 70.062 62.7591 69.958C62.7031 69.858 62.7311 69.774 62.8431 69.706C62.9831 69.622 63.1071 69.518 63.2151 69.394C63.3271 69.266 63.4231 69.102 63.5031 68.902C63.5831 68.702 63.6431 68.452 63.6831 68.152C63.7271 67.848 63.7491 67.476 63.7491 67.036V65.98C63.7491 65.84 63.8191 65.77 63.9591 65.77H66.2571C66.3971 65.77 66.4671 65.84 66.4671 65.98V69.844C66.4671 69.972 66.4051 70.036 66.2811 70.036ZM70.5611 70.036C70.4371 70.036 70.3751 69.972 70.3751 69.844V68.17H69.5771C69.3611 68.17 69.1891 68.202 69.0611 68.266C68.9331 68.326 68.8171 68.452 68.7131 68.644L68.0291 69.916C67.9851 69.996 67.9291 70.036 67.8611 70.036C67.7931 70.04 67.7391 70.016 67.6991 69.964C67.6591 69.908 67.6631 69.836 67.7111 69.748L68.3411 68.584C68.4691 68.344 68.6171 68.19 68.7851 68.122C68.4571 68.07 68.2011 67.946 68.0171 67.75C67.8371 67.55 67.7471 67.29 67.7471 66.97C67.7471 66.586 67.8671 66.29 68.1071 66.082C68.3471 65.874 68.6911 65.77 69.1391 65.77H70.5371C70.6731 65.77 70.7411 65.84 70.7411 65.98V69.844C70.7411 69.972 70.6811 70.036 70.5611 70.036ZM69.1931 67.858H70.3751V66.088H69.1931C68.4811 66.088 68.1251 66.382 68.1251 66.97C68.1251 67.562 68.4811 67.858 69.1931 67.858ZM74.1615 70C74.0255 70 73.9575 69.93 73.9575 69.79V65.98C73.9575 65.84 74.0255 65.77 74.1615 65.77H75.5715C76.0035 65.77 76.3375 65.866 76.5735 66.058C76.8135 66.25 76.9335 66.524 76.9335 66.88C76.9335 67.112 76.8715 67.31 76.7475 67.474C76.6235 67.638 76.4555 67.758 76.2435 67.834C76.4875 67.894 76.6795 68.012 76.8195 68.188C76.9595 68.36 77.0295 68.58 77.0295 68.848C77.0295 69.224 76.9095 69.51 76.6695 69.706C76.4295 69.902 76.0895 70 75.6495 70H74.1615ZM74.3175 67.702H75.5295C75.8655 67.702 76.1215 67.634 76.2975 67.498C76.4735 67.358 76.5615 67.156 76.5615 66.892C76.5615 66.628 76.4735 66.428 76.2975 66.292C76.1215 66.152 75.8655 66.082 75.5295 66.082H74.3175V67.702ZM74.3175 69.688H75.6195C76.3115 69.688 76.6575 69.41 76.6575 68.854C76.6575 68.566 76.5715 68.354 76.3995 68.218C76.2275 68.082 75.9675 68.014 75.6195 68.014H74.3175V69.688ZM79.6269 70.048C79.2989 70.048 79.0009 70.006 78.7329 69.922C78.4649 69.838 78.2449 69.718 78.0729 69.562C78.0169 69.514 77.9929 69.46 78.0009 69.4C78.0089 69.336 78.0369 69.288 78.0849 69.256C78.1369 69.224 78.1969 69.234 78.2649 69.286C78.6209 69.57 79.0689 69.712 79.6089 69.712C80.0209 69.712 80.3229 69.64 80.5149 69.496C80.7109 69.348 80.8089 69.13 80.8089 68.842C80.8089 68.562 80.7229 68.356 80.5509 68.224C80.3789 68.088 80.1189 68.02 79.7709 68.02H78.8769C78.7569 68.02 78.6969 67.966 78.6969 67.858C78.6969 67.754 78.7569 67.702 78.8769 67.702H79.6809C80.0169 67.702 80.2729 67.634 80.4489 67.498C80.6249 67.358 80.7129 67.158 80.7129 66.898C80.7129 66.638 80.6189 66.434 80.4309 66.286C80.2469 66.134 79.9749 66.058 79.6149 66.058C79.3869 66.058 79.1669 66.09 78.9549 66.154C78.7469 66.218 78.5529 66.32 78.3729 66.46C78.3049 66.512 78.2449 66.522 78.1929 66.49C78.1409 66.458 78.1109 66.412 78.1029 66.352C78.0989 66.288 78.1269 66.234 78.1869 66.19C78.3789 66.03 78.6009 65.912 78.8529 65.836C79.1089 65.76 79.3689 65.722 79.6329 65.722C80.1129 65.722 80.4749 65.826 80.7189 66.034C80.9669 66.242 81.0909 66.524 81.0909 66.88C81.0909 67.112 81.0289 67.31 80.9049 67.474C80.7809 67.638 80.6129 67.758 80.4009 67.834C80.6449 67.894 80.8369 68.012 80.9769 68.188C81.1169 68.36 81.1869 68.58 81.1869 68.848C81.1869 69.224 81.0589 69.518 80.8029 69.73C80.5469 69.942 80.1549 70.048 79.6269 70.048ZM82.6183 70.036C82.4983 70.036 82.4383 69.972 82.4383 69.844V65.962C82.4383 65.834 82.5003 65.77 82.6243 65.77H84.0343C84.4863 65.77 84.8303 65.878 85.0663 66.094C85.3063 66.31 85.4263 66.618 85.4263 67.018C85.4263 67.414 85.3063 67.722 85.0663 67.942C84.8303 68.158 84.4863 68.266 84.0343 68.266H82.8043V69.844C82.8043 69.972 82.7423 70.036 82.6183 70.036ZM82.8043 67.942H84.0043C84.7043 67.942 85.0543 67.634 85.0543 67.018C85.0543 66.398 84.7043 66.088 84.0043 66.088H82.8043V67.942ZM88.1459 70.048C87.7579 70.048 87.4219 69.96 87.1379 69.784C86.8579 69.608 86.6399 69.358 86.4839 69.034C86.3319 68.71 86.2559 68.326 86.2559 67.882C86.2559 67.438 86.3319 67.054 86.4839 66.73C86.6359 66.406 86.8539 66.158 87.1379 65.986C87.4219 65.81 87.7579 65.722 88.1459 65.722C88.5379 65.722 88.8739 65.81 89.1539 65.986C89.4379 66.158 89.6559 66.406 89.8079 66.73C89.9639 67.05 90.0419 67.432 90.0419 67.876C90.0419 68.324 89.9639 68.71 89.8079 69.034C89.6559 69.358 89.4379 69.608 89.1539 69.784C88.8699 69.96 88.5339 70.048 88.1459 70.048ZM88.1459 69.712C88.6219 69.712 88.9919 69.552 89.2559 69.232C89.5199 68.912 89.6519 68.462 89.6519 67.882C89.6519 67.302 89.5199 66.854 89.2559 66.538C88.9959 66.218 88.6259 66.058 88.1459 66.058C87.6699 66.058 87.2999 66.218 87.0359 66.538C86.7759 66.858 86.6459 67.306 86.6459 67.882C86.6459 68.458 86.7759 68.908 87.0359 69.232C87.2999 69.552 87.6699 69.712 88.1459 69.712ZM93.0406 70.048C92.6366 70.048 92.2906 69.962 92.0026 69.79C91.7146 69.614 91.4926 69.364 91.3366 69.04C91.1846 68.716 91.1086 68.33 91.1086 67.882C91.1086 67.438 91.1846 67.054 91.3366 66.73C91.4926 66.406 91.7146 66.158 92.0026 65.986C92.2906 65.81 92.6366 65.722 93.0406 65.722C93.3046 65.722 93.5506 65.762 93.7786 65.842C94.0066 65.918 94.2026 66.028 94.3666 66.172C94.4346 66.228 94.4646 66.29 94.4566 66.358C94.4486 66.422 94.4166 66.468 94.3606 66.496C94.3046 66.524 94.2406 66.51 94.1686 66.454C93.8646 66.194 93.4906 66.064 93.0466 66.064C92.5506 66.064 92.1686 66.224 91.9006 66.544C91.6366 66.86 91.5046 67.306 91.5046 67.882C91.5046 68.462 91.6366 68.912 91.9006 69.232C92.1686 69.548 92.5506 69.706 93.0466 69.706C93.4866 69.706 93.8626 69.574 94.1746 69.31C94.2466 69.254 94.3086 69.24 94.3606 69.268C94.4166 69.296 94.4486 69.342 94.4566 69.406C94.4686 69.47 94.4446 69.528 94.3846 69.58C94.0366 69.892 93.5886 70.048 93.0406 70.048ZM98.7221 70.036C98.5981 70.036 98.5361 69.972 98.5361 69.844V66.1H96.5381V67.126C96.5381 67.694 96.4961 68.166 96.4121 68.542C96.3321 68.918 96.2121 69.222 96.0521 69.454C95.8921 69.686 95.6941 69.872 95.4581 70.012C95.3461 70.08 95.2601 70.062 95.2001 69.958C95.1441 69.858 95.1721 69.774 95.2841 69.706C95.4241 69.622 95.5481 69.518 95.6561 69.394C95.7681 69.266 95.8641 69.102 95.9441 68.902C96.0241 68.702 96.0841 68.452 96.1241 68.152C96.1681 67.848 96.1901 67.476 96.1901 67.036V65.98C96.1901 65.84 96.2601 65.77 96.4001 65.77H98.6981C98.8381 65.77 98.9081 65.84 98.9081 65.98V69.844C98.9081 69.972 98.8461 70.036 98.7221 70.036ZM100.518 70C100.382 70 100.314 69.93 100.314 69.79V65.926C100.314 65.798 100.374 65.734 100.494 65.734C100.618 65.734 100.68 65.798 100.68 65.926V67.684H101.826C102.266 67.684 102.606 67.78 102.846 67.972C103.086 68.16 103.206 68.448 103.206 68.836C103.206 69.22 103.086 69.51 102.846 69.706C102.606 69.902 102.266 70 101.826 70H100.518ZM104.028 70.036C103.904 70.036 103.842 69.972 103.842 69.844V65.926C103.842 65.798 103.904 65.734 104.028 65.734C104.148 65.734 104.208 65.798 104.208 65.926V69.844C104.208 69.972 104.148 70.036 104.028 70.036ZM100.68 69.682H101.796C102.488 69.682 102.834 69.4 102.834 68.836C102.834 68.28 102.488 68.002 101.796 68.002H100.68V69.682ZM105.462 70.036C105.386 70.036 105.332 70.01 105.3 69.958C105.272 69.902 105.28 69.844 105.324 69.784L106.77 67.834L105.42 66.004C105.368 65.932 105.358 65.87 105.39 65.818C105.422 65.762 105.472 65.734 105.54 65.734C105.616 65.734 105.684 65.774 105.744 65.854L106.986 67.552L108.222 65.854C108.278 65.774 108.346 65.734 108.426 65.734C108.494 65.734 108.544 65.762 108.576 65.818C108.608 65.87 108.598 65.932 108.546 66.004L107.196 67.834L108.636 69.784C108.68 69.844 108.686 69.902 108.654 69.958C108.626 70.01 108.574 70.036 108.498 70.036C108.422 70.036 108.354 69.996 108.294 69.916L106.98 68.122L105.666 69.916C105.61 69.996 105.542 70.036 105.462 70.036Z" fill="white"/>
</svg>
